<svg xmlns="http://www.w3.org/2000/svg"
     width="24" height="24" viewBox="0 0 24 24" fill="none"
     stroke="currentColor" stroke-width="1" stroke-linecap="round" stroke-linejoin="round"
     class="icon icon-tabler icons-tabler-outline icon-tabler-heart-handshake">
    <path stroke="none" d="M0 0h24v24H0z" fill="none"/>
    <path d="M19.5 12.572l-7.5 7.428l-7.5 -7.428a5 5 0 1 1 7.5 -6.566a5 5 0 1 1 7.5 6.572" />
    <path d="M12 6l-2.5 2.5a1 1 0 0 0 0 1.414l.543 .543c.69 .69 1.81 .69 2.5 0l1 -1a3.182 3.182 0 0 1 4.5 0l1.5 1.5" />
    <path d="M12.5 15.5l1.5 1.5" />
    <path d="M15 13l1.5 1.5" />
    <path d="M6.331 8h11.339a2 2 0 0 1 1.977 2.304l-1.255 8.152a3 3 0 0 1 -2.966 2.544h-6.852a3 3 0 0 1 -2.965 -2.544l-1.255 -8.152a2 2 0 0 1 1.977 -2.304z" />
    <path d="M9 11v-5a3 3 0 0 1 6 0v5" />
</svg>
